<!DOCTYPE svg PUBLIC "-//W3C//DTD SVG 1.1//EN" "http://www.w3.org/Graphics/SVG/1.1/DTD/svg11.dtd">
<!-- Uploaded to: SVG Repo, www.svgrepo.com, Transformed by: SVG Repo Mixer Tools -->
<svg fill="#ffffff" width="204px" height="204px" viewBox="0 0 256 256" id="Flat" xmlns="http://www.w3.org/2000/svg" stroke="#ffffff">
<g id="SVGRepo_bgCarrier" stroke-width="0"/>
<g id="SVGRepo_tracerCarrier" stroke-linecap="round" stroke-linejoin="round"/>
<g id="SVGRepo_iconCarrier"> <path d="M128,32a96,96,0,1,0,96,96A96.10874,96.10874,0,0,0,128,32Zm4,183.90527V180a4,4,0,0,0-8,0v35.90527A88.1149,88.1149,0,0,1,40.09473,132H76a4,4,0,0,0,0-8H40.09473A88.1149,88.1149,0,0,1,124,40.09473V76a4,4,0,0,0,8,0V40.09473A88.1149,88.1149,0,0,1,215.90527,124H180a4,4,0,0,0,0,8h35.90527A88.1149,88.1149,0,0,1,132,215.90527Z"/> </g>
</svg>